<?xml version="1.0" encoding="utf-8"?>
<svg viewBox="0 0 500 500" xmlns="http://www.w3.org/2000/svg">
  <g transform="matrix(-0.678392, -0.435647, -0.454869, 0.708324, 525.988777, 174.068637)" style="">
    <path d="M 453.264 228.429 L 328.068 156.147 C 324.534 154.107 320.178 156.937 320.605 160.995 L 324.564 198.562 C 324.564 198.562 290.914 190.114 273.483 210.205 L 31.397 70.436 C 21.389 64.658 8.161 67.941 2.572 78.055 C -2.849 87.864 0.565 100.248 10.312 105.876 L 51.224 129.496 C 54.62 131.456 55.783 135.798 53.823 139.194 C 44.397 155.521 49.991 176.397 66.317 185.824 L 255.603 295.109 C 248.427 303.279 242.764 315.38 247.706 331.685 C 230.859 331.097 206.464 331.693 190.152 332.239 C 185.134 332.407 183.484 339.044 187.832 341.554 L 339.175 428.932 C 394.595 460.929 465.53 441.707 497.17 385.955 C 528.561 330.641 508.342 260.228 453.264 228.429 Z" fill="#ffe8a0" transform="matrix(0.999649, 0.02539, -0.02768, 0.999649, 7.176182, -6.409984)"/>
    <path d="M 451.693 232.268 L 450.809 231.758 C 487.116 269.46 496.645 327.75 469.629 375.354 C 442.959 422.348 389.604 444.524 339.552 433.864 C 394.676 464.308 464.328 444.897 495.599 389.795 C 526.99 334.48 506.771 264.067 451.693 232.268 Z" fill="#ffd78c"/>
    <path d="m436.34 265.685-38.023-21.956c-12.428-7.175-28.319-2.917-35.495 9.511l-.52.9c-3.703 6.414-11.905 8.612-18.319 4.909l-6.052-3.494c-8.555-4.939-19.495-2.008-24.435 6.547-4.939 8.555-2.008 19.495 6.547 24.435l26.02 15.023c4.681 2.702 6.595 8.425 4.601 13.449-1.218 3.069-2.218 6.183-3.006 9.325-1.736 6.924-9.684 10.198-15.866 6.629l-1.531-.884c-9.669-5.582-22.032-2.27-27.615 7.399s-2.27 22.032 7.399 27.615l50.713 29.279c35.515 20.504 81.428 9.345 102.392-25.901 21.301-35.814 9.164-82.016-26.81-102.786z" fill="#fe7d43"/>
    <path d="m459.049 285.959c5.114 18.811 2.915 39.604-7.87 57.737-20.963 35.246-66.877 46.406-102.392 25.901l-48.008-27.718c-2.583 8.751 1.017 18.448 9.267 23.211l50.713 29.279c35.515 20.504 81.428 9.345 102.392-25.901 15.866-26.675 13.169-59.109-4.102-82.509z" fill="#fd5426"/>
    <path d="m430.148 397.889c5.05-14.314-.63-30.639-14.251-38.503-15.376-8.877-35.037-3.609-43.915 11.767-5.059 8.762-5.518 18.913-2.137 27.67 19.776 8.164 41.667 7.471 60.303-.934z" fill="#fd5426"/>
    <path d="m426.224 368.874c-16.878 10.255-37.506 13.547-57.107 8.835-2.185 7.031-1.835 14.473.729 21.114 11.116 4.589 22.901 6.379 34.401 5.574.025-.002.049-.004.073-.006 9.092-.645 17.905-2.929 25.828-6.502 3.478-9.858 1.866-20.67-3.924-29.015z" fill="#d73d24"/>
    <path d="m436.34 265.685-29.934-17.286c-9.332 16.496-3.644 37.462 12.803 46.958 14.061 8.118 31.449 5.231 42.211-5.979-6.194-9.457-14.621-17.655-25.08-23.693z" fill="#fd5426"/>
    <path d="m249.008 158.715c-1.311 0-2.639-.334-3.856-1.037l-30.795-17.779c-3.695-2.133-4.962-6.859-2.828-10.554 2.133-3.695 6.858-4.963 10.554-2.828l30.795 17.779c3.695 2.133 4.961 6.859 2.828 10.554-1.431 2.478-4.028 3.865-6.698 3.865z" fill="#ffd78c"/>
    <g fill="#fe7d43">
      <path d="m171.736 305.699c-1.311 0-2.639-.334-3.856-1.037l-84.776-48.946c-3.696-2.133-4.962-6.859-2.828-10.554 2.133-3.696 6.858-4.963 10.554-2.828l84.776 48.946c3.696 2.133 4.962 6.859 2.828 10.554-1.431 2.478-4.028 3.865-6.698 3.865z"/>
      <path d="m146.8 106.247c-1.311 0-2.639-.334-3.856-1.037l-24.203-13.973c-3.696-2.133-4.962-6.859-2.828-10.554 2.133-3.695 6.859-4.963 10.554-2.828l24.203 13.973c3.696 2.133 4.962 6.859 2.828 10.554-1.431 2.479-4.028 3.865-6.698 3.865z"/>
    </g>
  </g>
</svg>